<mxfile host="65bd71144e" scale="5" border="10">
    <diagram id="8L9aVejFhc21wHGrLeon" name="ページ1">
        <mxGraphModel dx="507" dy="540" grid="1" gridSize="10" guides="1" tooltips="1" connect="1" arrows="1" fold="1" page="1" pageScale="1" pageWidth="1169" pageHeight="827" background="#ffffff" math="0" shadow="0">
            <root>
                <mxCell id="0"/>
                <mxCell id="1" parent="0"/>
                <mxCell id="49" value="：日記" style="ellipse;shape=umlEntity;whiteSpace=wrap;html=1;" parent="1" vertex="1">
                    <mxGeometry x="880" y="260" width="80" height="80" as="geometry"/>
                </mxCell>
                <mxCell id="73" style="edgeStyle=none;html=1;entryX=0;entryY=0.5;entryDx=0;entryDy=0;endArrow=none;endFill=0;" parent="1" source="53" target="49" edge="1">
                    <mxGeometry relative="1" as="geometry"/>
                </mxCell>
                <mxCell id="83" style="edgeStyle=none;html=1;endArrow=none;endFill=0;" edge="1" parent="1" source="53" target="82">
                    <mxGeometry relative="1" as="geometry"/>
                </mxCell>
                <mxCell id="53" value="：日記記録管理" style="ellipse;shape=umlControl;whiteSpace=wrap;html=1;" parent="1" vertex="1">
                    <mxGeometry x="590" y="260" width="70" height="80" as="geometry"/>
                </mxCell>
                <mxCell id="57" value=": 日記一覧&lt;br&gt;ページ" style="shape=umlBoundary;whiteSpace=wrap;html=1;" parent="1" vertex="1">
                    <mxGeometry x="300" y="550" width="100" height="80" as="geometry"/>
                </mxCell>
                <mxCell id="72" style="edgeStyle=none;html=1;endArrow=none;endFill=0;" parent="1" source="58" target="53" edge="1">
                    <mxGeometry relative="1" as="geometry"/>
                </mxCell>
                <mxCell id="74" style="edgeStyle=none;html=1;endArrow=none;endFill=0;" parent="1" source="58" target="57" edge="1">
                    <mxGeometry relative="1" as="geometry"/>
                </mxCell>
                <mxCell id="58" value=": 日記作成&lt;br&gt;ページ" style="shape=umlBoundary;whiteSpace=wrap;html=1;" parent="1" vertex="1">
                    <mxGeometry x="300" y="260" width="100" height="80" as="geometry"/>
                </mxCell>
                <mxCell id="71" style="edgeStyle=none;html=1;endArrow=none;endFill=0;" parent="1" source="69" target="58" edge="1">
                    <mxGeometry relative="1" as="geometry"/>
                </mxCell>
                <mxCell id="69" value="：ユーザ" style="shape=umlActor;verticalLabelPosition=bottom;verticalAlign=top;html=1;outlineConnect=0;" parent="1" vertex="1">
                    <mxGeometry x="60" y="270" width="30" height="60" as="geometry"/>
                </mxCell>
                <mxCell id="76" value="1 : get()" style="html=1;verticalAlign=bottom;labelBackgroundColor=none;endArrow=open;endFill=0;" parent="1" edge="1">
                    <mxGeometry width="160" relative="1" as="geometry">
                        <mxPoint x="120" y="260" as="sourcePoint"/>
                        <mxPoint x="280" y="260" as="targetPoint"/>
                        <mxPoint as="offset"/>
                    </mxGeometry>
                </mxCell>
                <mxCell id="77" value="2 : post()" style="html=1;verticalAlign=bottom;labelBackgroundColor=none;endArrow=open;endFill=0;" parent="1" edge="1">
                    <mxGeometry width="160" relative="1" as="geometry">
                        <mxPoint x="120" y="290" as="sourcePoint"/>
                        <mxPoint x="280" y="290" as="targetPoint"/>
                        <mxPoint as="offset"/>
                    </mxGeometry>
                </mxCell>
                <mxCell id="78" value="3 : create_diary(user_id, body)" style="html=1;verticalAlign=bottom;labelBackgroundColor=none;endArrow=open;endFill=0;" parent="1" edge="1">
                    <mxGeometry width="160" relative="1" as="geometry">
                        <mxPoint x="420" y="290" as="sourcePoint"/>
                        <mxPoint x="580" y="290" as="targetPoint"/>
                        <mxPoint as="offset"/>
                    </mxGeometry>
                </mxCell>
                <mxCell id="79" value="4[check_body_length(body) = true] : &lt;br&gt;作成 Diary(user_id, body)" style="html=1;verticalAlign=bottom;labelBackgroundColor=none;endArrow=open;endFill=0;" parent="1" edge="1">
                    <mxGeometry width="160" relative="1" as="geometry">
                        <mxPoint x="690" y="290" as="sourcePoint"/>
                        <mxPoint x="850" y="290" as="targetPoint"/>
                        <mxPoint as="offset"/>
                    </mxGeometry>
                </mxCell>
                <mxCell id="80" value="8[create_diary(user_id, body) = true] :&amp;nbsp;&lt;br&gt;get()&amp;nbsp;" style="html=1;verticalAlign=bottom;labelBackgroundColor=none;endArrow=open;endFill=0;" parent="1" edge="1">
                    <mxGeometry x="-0.125" y="110" width="160" relative="1" as="geometry">
                        <mxPoint x="360" y="370" as="sourcePoint"/>
                        <mxPoint x="360" y="530" as="targetPoint"/>
                        <mxPoint as="offset"/>
                    </mxGeometry>
                </mxCell>
                <mxCell id="81" value="日記作成" style="text;html=1;align=center;verticalAlign=middle;resizable=0;points=[];autosize=1;strokeColor=none;fillColor=none;fontSize=32;" parent="1" vertex="1">
                    <mxGeometry x="10" y="10" width="150" height="50" as="geometry"/>
                </mxCell>
                <mxCell id="86" style="edgeStyle=none;html=1;endArrow=none;endFill=0;" edge="1" parent="1" source="82" target="85">
                    <mxGeometry relative="1" as="geometry"/>
                </mxCell>
                <mxCell id="82" value="：分析管理" style="ellipse;shape=umlControl;whiteSpace=wrap;html=1;" vertex="1" parent="1">
                    <mxGeometry x="590" y="550" width="70" height="80" as="geometry"/>
                </mxCell>
                <mxCell id="84" value="5[check_body_length(body) = true] :&amp;nbsp;&lt;br&gt;analyze_diary(diary_id)" style="html=1;verticalAlign=bottom;labelBackgroundColor=none;endArrow=open;endFill=0;" edge="1" parent="1">
                    <mxGeometry x="-0.125" y="110" width="160" relative="1" as="geometry">
                        <mxPoint x="640" y="370" as="sourcePoint"/>
                        <mxPoint x="640" y="530" as="targetPoint"/>
                        <mxPoint as="offset"/>
                    </mxGeometry>
                </mxCell>
                <mxCell id="88" style="edgeStyle=none;html=1;endArrow=none;endFill=0;" edge="1" parent="1" source="85" target="49">
                    <mxGeometry relative="1" as="geometry"/>
                </mxCell>
                <mxCell id="85" value="：EmotionAI" style="ellipse;shape=umlEntity;whiteSpace=wrap;html=1;" vertex="1" parent="1">
                    <mxGeometry x="880" y="550" width="80" height="80" as="geometry"/>
                </mxCell>
                <mxCell id="87" value="6 : analyze_diary(diary_id)" style="html=1;verticalAlign=bottom;labelBackgroundColor=none;endArrow=open;endFill=0;" edge="1" parent="1">
                    <mxGeometry width="160" relative="1" as="geometry">
                        <mxPoint x="690" y="580" as="sourcePoint"/>
                        <mxPoint x="850" y="580" as="targetPoint"/>
                        <mxPoint as="offset"/>
                    </mxGeometry>
                </mxCell>
                <mxCell id="89" value="7 : 更新&lt;br&gt;response=response,&lt;br&gt;emotion=emotion,&lt;br&gt;emotion_degree = degree" style="html=1;verticalAlign=bottom;labelBackgroundColor=none;endArrow=open;endFill=0;" edge="1" parent="1">
                    <mxGeometry x="0.125" y="-70" width="160" relative="1" as="geometry">
                        <mxPoint x="930" y="530" as="sourcePoint"/>
                        <mxPoint x="930" y="370" as="targetPoint"/>
                        <mxPoint as="offset"/>
                    </mxGeometry>
                </mxCell>
            </root>
        </mxGraphModel>
    </diagram>
</mxfile>